<mxfile host="app.diagrams.net" modified="2022-05-24T06:05:20.617Z" agent="5.0 (Macintosh; Intel Mac OS X 10_15_7) AppleWebKit/537.36 (KHTML, like Gecko) Chrome/101.0.4951.64 Safari/537.36" etag="TR3zBo_LJPrNQgWvFr_9" version="14.8.3" type="github">
  <diagram id="1wqHAJh1DKUwnAosQYlU" name="Page-1">
    <mxGraphModel dx="1042" dy="706" grid="0" gridSize="10" guides="1" tooltips="1" connect="1" arrows="1" fold="1" page="1" pageScale="1" pageWidth="850" pageHeight="1100" math="0" shadow="0">
      <root>
        <mxCell id="0" />
        <mxCell id="1" parent="0" />
        <mxCell id="rDqMr2C50JIM207bRzbc-3" style="edgeStyle=orthogonalEdgeStyle;rounded=0;orthogonalLoop=1;jettySize=auto;html=1;exitX=0;exitY=0.5;exitDx=0;exitDy=0;entryX=0.5;entryY=0;entryDx=0;entryDy=0;" edge="1" parent="1" source="rDqMr2C50JIM207bRzbc-1" target="rDqMr2C50JIM207bRzbc-2">
          <mxGeometry relative="1" as="geometry" />
        </mxCell>
        <mxCell id="rDqMr2C50JIM207bRzbc-7" value="&lt;span style=&quot;font-size: 12px ; background-color: rgb(248 , 249 , 250)&quot;&gt;Behvioral&lt;/span&gt;" style="edgeLabel;html=1;align=center;verticalAlign=middle;resizable=0;points=[];" vertex="1" connectable="0" parent="rDqMr2C50JIM207bRzbc-3">
          <mxGeometry x="0.6047" y="-2" relative="1" as="geometry">
            <mxPoint as="offset" />
          </mxGeometry>
        </mxCell>
        <mxCell id="rDqMr2C50JIM207bRzbc-5" style="edgeStyle=orthogonalEdgeStyle;rounded=0;orthogonalLoop=1;jettySize=auto;html=1;exitX=1;exitY=0.5;exitDx=0;exitDy=0;" edge="1" parent="1" source="rDqMr2C50JIM207bRzbc-1" target="rDqMr2C50JIM207bRzbc-4">
          <mxGeometry relative="1" as="geometry" />
        </mxCell>
        <mxCell id="rDqMr2C50JIM207bRzbc-8" value="&lt;span style=&quot;font-size: 12px ; background-color: rgb(248 , 249 , 250)&quot;&gt;Structural&lt;/span&gt;" style="edgeLabel;html=1;align=center;verticalAlign=middle;resizable=0;points=[];" vertex="1" connectable="0" parent="rDqMr2C50JIM207bRzbc-5">
          <mxGeometry x="0.5593" y="1" relative="1" as="geometry">
            <mxPoint as="offset" />
          </mxGeometry>
        </mxCell>
        <mxCell id="rDqMr2C50JIM207bRzbc-1" value="UML" style="whiteSpace=wrap;html=1;aspect=fixed;" vertex="1" parent="1">
          <mxGeometry x="379" y="31" width="138" height="138" as="geometry" />
        </mxCell>
        <mxCell id="rDqMr2C50JIM207bRzbc-2" value="" style="whiteSpace=wrap;html=1;aspect=fixed;" vertex="1" parent="1">
          <mxGeometry x="153" y="251" width="200" height="200" as="geometry" />
        </mxCell>
        <mxCell id="rDqMr2C50JIM207bRzbc-4" value="" style="whiteSpace=wrap;html=1;aspect=fixed;" vertex="1" parent="1">
          <mxGeometry x="578" y="251" width="200" height="200" as="geometry" />
        </mxCell>
        <mxCell id="rDqMr2C50JIM207bRzbc-9" value="Class&lt;br style=&quot;font-size: 15px;&quot;&gt;Object&lt;br style=&quot;font-size: 15px;&quot;&gt;Package&lt;br style=&quot;font-size: 15px;&quot;&gt;Component&lt;br style=&quot;font-size: 15px;&quot;&gt;Component Structure&lt;br style=&quot;font-size: 15px;&quot;&gt;Composite Structure&lt;br style=&quot;font-size: 15px;&quot;&gt;Deplyment&lt;br style=&quot;font-size: 15px;&quot;&gt;Profile" style="text;html=1;strokeColor=none;fillColor=none;align=center;verticalAlign=middle;whiteSpace=wrap;rounded=0;fontSize=15;" vertex="1" parent="1">
          <mxGeometry x="163" y="261" width="168" height="176" as="geometry" />
        </mxCell>
        <mxCell id="rDqMr2C50JIM207bRzbc-11" value="Use Case&lt;br&gt;Activity&lt;br&gt;Sequence&lt;br&gt;State&lt;br&gt;Communication&lt;br&gt;Interaction&lt;br&gt;Timing" style="text;html=1;strokeColor=none;fillColor=none;align=center;verticalAlign=middle;whiteSpace=wrap;rounded=0;fontSize=15;" vertex="1" parent="1">
          <mxGeometry x="594" y="261" width="168" height="176" as="geometry" />
        </mxCell>
      </root>
    </mxGraphModel>
  </diagram>
</mxfile>
